<?xml version="1.0" encoding="UTF-8" standalone="no"?>
<!DOCTYPE svg PUBLIC "-//W3C//DTD SVG 1.1//EN"
 "http://www.w3.org/Graphics/SVG/1.1/DTD/svg11.dtd">
<!-- Generated by graphviz version 2.30.1 (20130405.0947)
 -->
<!-- Title: %3 Pages: 1 -->
<svg width="206pt" height="152pt"
 viewBox="0.00 0.00 206.00 152.00" xmlns="http://www.w3.org/2000/svg" xmlns:xlink="http://www.w3.org/1999/xlink">
<g id="graph0" class="graph" transform="scale(1 1) rotate(0) translate(4 148)">
<title>%3</title>
<polygon fill="white" stroke="white" points="-4,5 -4,-148 203,-148 203,5 -4,5"/>
<!-- A -->
<g id="node1" class="node"><title>A</title>
<ellipse fill="none" stroke="black" cx="18" cy="-99" rx="18.0209" ry="18.0209"/>
<text text-anchor="middle" x="18" y="-93.4" font-family="Times,serif" font-size="14.00">A</text>
</g>
<!-- B -->
<g id="node2" class="node"><title>B</title>
<ellipse fill="none" stroke="black" cx="90" cy="-126" rx="18" ry="18"/>
<text text-anchor="middle" x="90" y="-120.4" font-family="Times,serif" font-size="14.00">B</text>
</g>
<!-- A&#45;&#45;B -->
<g id="edge1" class="edge"><title>A&#45;&#45;B</title>
<path fill="none" stroke="black" d="M35.2354,-105.262C46.544,-109.624 61.5633,-115.417 72.8527,-119.772"/>
</g>
<!-- D -->
<g id="node4" class="node"><title>D</title>
<ellipse fill="none" stroke="black" cx="90" cy="-72" rx="18.0209" ry="18.0209"/>
<text text-anchor="middle" x="90" y="-66.4" font-family="Times,serif" font-size="14.00">D</text>
</g>
<!-- A&#45;&#45;D -->
<g id="edge2" class="edge"><title>A&#45;&#45;D</title>
<path fill="none" stroke="black" d="M35.2354,-92.7378C46.544,-88.3759 61.5633,-82.5827 72.8527,-78.2282"/>
</g>
<!-- C -->
<g id="node3" class="node"><title>C</title>
<ellipse fill="none" stroke="black" cx="171" cy="-126" rx="18" ry="18"/>
<text text-anchor="middle" x="171" y="-120.4" font-family="Times,serif" font-size="14.00">C</text>
</g>
<!-- B&#45;&#45;C -->
<g id="edge3" class="edge"><title>B&#45;&#45;C</title>
<path fill="none" stroke="black" d="M108.142,-126C121.393,-126 139.649,-126 152.892,-126"/>
</g>
<!-- D&#45;&#45;C -->
<g id="edge4" class="edge"><title>D&#45;&#45;C</title>
<path fill="none" stroke="black" d="M105.49,-81.9044C119.744,-91.6478 141.38,-106.437 155.602,-116.158"/>
</g>
<!-- D0 -->
<!-- D&#45;&#45;D0 -->
<!-- E -->
<g id="node5" class="node"><title>E</title>
<ellipse fill="none" stroke="black" cx="171" cy="-18" rx="18" ry="18"/>
<text text-anchor="middle" x="171" y="-12.4" font-family="Times,serif" font-size="14.00">E</text>
</g>
<!-- D&#45;&#45;E -->
<g id="edge6" class="edge"><title>D&#45;&#45;E</title>
<path fill="none" stroke="black" d="M105.49,-62.0956C119.744,-52.3522 141.38,-37.5632 155.602,-27.8416"/>
</g>
</g>
</svg>
