<?xml version="1.0" encoding="UTF-8" standalone="no"?>
<!DOCTYPE svg PUBLIC "-//W3C//DTD SVG 1.1//EN"
 "http://www.w3.org/Graphics/SVG/1.1/DTD/svg11.dtd">
<!-- Generated by graphviz version 2.30.1 (20130405.0947)
 -->
<!-- Title: %3 Pages: 1 -->
<svg width="358pt" height="188pt"
 viewBox="0.00 0.00 358.00 188.00" xmlns="http://www.w3.org/2000/svg" xmlns:xlink="http://www.w3.org/1999/xlink">
<g id="graph0" class="graph" transform="scale(1 1) rotate(0) translate(4 184)">
<title>%3</title>
<polygon fill="white" stroke="white" points="-4,5 -4,-184 355,-184 355,5 -4,5"/>
<!-- ns -->
<g id="node1" class="node"><title>ns</title>
<polygon fill="none" stroke="black" points="-0.0551758,-0 -0.0551758,-180 26.0552,-180 26.0552,-0 -0.0551758,-0"/>
<text text-anchor="middle" x="13" y="-156.5" font-family="Times,serif" font-size="14.00">A</text>
<polyline fill="none" stroke="black" points="-0.0551758,-144.2 26.0552,-144.2 "/>
<text text-anchor="middle" x="13" y="-120.7" font-family="Times,serif" font-size="14.00">B</text>
<polyline fill="none" stroke="black" points="-0.0551758,-108.4 26.0552,-108.4 "/>
<text text-anchor="middle" x="13" y="-84.9" font-family="Times,serif" font-size="14.00">C</text>
<polyline fill="none" stroke="black" points="-0.0551758,-72.6 26.0552,-72.6 "/>
<text text-anchor="middle" x="13" y="-49.1" font-family="Times,serif" font-size="14.00">D</text>
<polyline fill="none" stroke="black" points="-0.0551758,-36.8 26.0552,-36.8 "/>
<text text-anchor="middle" x="13" y="-12.8" font-family="Times,serif" font-size="14.00">E</text>
</g>
<!-- ab -->
<g id="node2" class="node"><title>ab</title>
<polygon fill="none" stroke="black" points="62,-149.6 62,-174.4 134,-174.4 134,-149.6 62,-149.6"/>
<text text-anchor="middle" x="80.1689" y="-156.4" font-family="Times,serif" font-size="14.00">B</text>
<polyline fill="none" stroke="black" points="98.3379,-149.6 98.3379,-174.4 "/>
<text text-anchor="middle" x="115.838" y="-156.4" font-family="Times,serif" font-size="14.00">1</text>
</g>
<!-- ns&#45;&gt;ab -->
<g id="edge1" class="edge"><title>ns:a&#45;&gt;ab:name</title>
<path fill="none" stroke="black" d="M26,-162C38,-162 43.25,-162 51.875,-162"/>
<polygon fill="black" stroke="black" points="52,-165.5 62,-162 52,-158.5 52,-165.5"/>
</g>
<!-- ba -->
<g id="node4" class="node"><title>ba</title>
<polygon fill="none" stroke="black" points="62,-113.6 62,-138.4 134,-138.4 134,-113.6 62,-113.6"/>
<text text-anchor="middle" x="80.5552" y="-120.4" font-family="Times,serif" font-size="14.00">A</text>
<polyline fill="none" stroke="black" points="99.1104,-113.6 99.1104,-138.4 "/>
<text text-anchor="middle" x="116.11" y="-120.4" font-family="Times,serif" font-size="14.00">1</text>
</g>
<!-- ns&#45;&gt;ba -->
<g id="edge3" class="edge"><title>ns:b&#45;&gt;ba:name</title>
<path fill="none" stroke="black" d="M26,-126C38,-126 43.25,-126 51.875,-126"/>
<polygon fill="black" stroke="black" points="52,-129.5 62,-126 52,-122.5 52,-129.5"/>
</g>
<!-- cb -->
<g id="node6" class="node"><title>cb</title>
<polygon fill="none" stroke="black" points="62,-78.6 62,-103.4 134,-103.4 134,-78.6 62,-78.6"/>
<text text-anchor="middle" x="80.1689" y="-85.4" font-family="Times,serif" font-size="14.00">B</text>
<polyline fill="none" stroke="black" points="98.3379,-78.6 98.3379,-103.4 "/>
<text text-anchor="middle" x="115.838" y="-85.4" font-family="Times,serif" font-size="14.00">3</text>
</g>
<!-- ns&#45;&gt;cb -->
<g id="edge5" class="edge"><title>ns:c&#45;&gt;cb:name</title>
<path fill="none" stroke="black" d="M26,-91C38,-91 43.25,-91 51.875,-91"/>
<polygon fill="black" stroke="black" points="52,-94.5001 62,-91 52,-87.5001 52,-94.5001"/>
</g>
<!-- da -->
<g id="node8" class="node"><title>da</title>
<polygon fill="none" stroke="black" points="62,-42.6 62,-67.4 134,-67.4 134,-42.6 62,-42.6"/>
<text text-anchor="middle" x="80.5552" y="-49.4" font-family="Times,serif" font-size="14.00">A</text>
<polyline fill="none" stroke="black" points="99.1104,-42.6 99.1104,-67.4 "/>
<text text-anchor="middle" x="116.11" y="-49.4" font-family="Times,serif" font-size="14.00">2</text>
</g>
<!-- ns&#45;&gt;da -->
<g id="edge7" class="edge"><title>ns:d&#45;&gt;da:name</title>
<path fill="none" stroke="black" d="M26,-55C38,-55 43.25,-55 51.875,-55"/>
<polygon fill="black" stroke="black" points="52,-58.5001 62,-55 52,-51.5001 52,-58.5001"/>
</g>
<!-- ed -->
<g id="node11" class="node"><title>ed</title>
<polygon fill="none" stroke="black" points="62,-5.6 62,-30.4 134,-30.4 134,-5.6 62,-5.6"/>
<text text-anchor="middle" x="80.5552" y="-12.4" font-family="Times,serif" font-size="14.00">D</text>
<polyline fill="none" stroke="black" points="99.1104,-5.6 99.1104,-30.4 "/>
<text text-anchor="middle" x="116.11" y="-12.4" font-family="Times,serif" font-size="14.00">2</text>
</g>
<!-- ns&#45;&gt;ed -->
<g id="edge10" class="edge"><title>ns:e&#45;&gt;ed:name</title>
<path fill="none" stroke="black" d="M26,-18C38,-18 43.25,-18 51.875,-18"/>
<polygon fill="black" stroke="black" points="52,-21.5001 62,-18 52,-14.5001 52,-21.5001"/>
</g>
<!-- ad -->
<g id="node3" class="node"><title>ad</title>
<polygon fill="none" stroke="black" points="170,-149.6 170,-174.4 242,-174.4 242,-149.6 170,-149.6"/>
<text text-anchor="middle" x="188.555" y="-156.4" font-family="Times,serif" font-size="14.00">D</text>
<polyline fill="none" stroke="black" points="207.11,-149.6 207.11,-174.4 "/>
<text text-anchor="middle" x="224.11" y="-156.4" font-family="Times,serif" font-size="14.00">2</text>
</g>
<!-- ab&#45;&gt;ad -->
<g id="edge2" class="edge"><title>ab:value&#45;&gt;ad:name</title>
<path fill="none" stroke="black" d="M134,-162C146,-162 151.25,-162 159.875,-162"/>
<polygon fill="black" stroke="black" points="160,-165.5 170,-162 160,-158.5 160,-165.5"/>
</g>
<!-- bc -->
<g id="node5" class="node"><title>bc</title>
<polygon fill="none" stroke="black" points="170,-113.6 170,-138.4 242,-138.4 242,-113.6 170,-113.6"/>
<text text-anchor="middle" x="188.169" y="-120.4" font-family="Times,serif" font-size="14.00">C</text>
<polyline fill="none" stroke="black" points="206.338,-113.6 206.338,-138.4 "/>
<text text-anchor="middle" x="223.838" y="-120.4" font-family="Times,serif" font-size="14.00">3</text>
</g>
<!-- ba&#45;&gt;bc -->
<g id="edge4" class="edge"><title>ba:value&#45;&gt;bc:name</title>
<path fill="none" stroke="black" d="M134,-126C146,-126 151.25,-126 159.875,-126"/>
<polygon fill="black" stroke="black" points="160,-129.5 170,-126 160,-122.5 160,-129.5"/>
</g>
<!-- cd -->
<g id="node7" class="node"><title>cd</title>
<polygon fill="none" stroke="black" points="170,-78.6 170,-103.4 242,-103.4 242,-78.6 170,-78.6"/>
<text text-anchor="middle" x="188.555" y="-85.4" font-family="Times,serif" font-size="14.00">D</text>
<polyline fill="none" stroke="black" points="207.11,-78.6 207.11,-103.4 "/>
<text text-anchor="middle" x="224.11" y="-85.4" font-family="Times,serif" font-size="14.00">4</text>
</g>
<!-- cb&#45;&gt;cd -->
<g id="edge6" class="edge"><title>cb:value&#45;&gt;cd:name</title>
<path fill="none" stroke="black" d="M134,-91C146,-91 151.25,-91 159.875,-91"/>
<polygon fill="black" stroke="black" points="160,-94.5001 170,-91 160,-87.5001 160,-94.5001"/>
</g>
<!-- dc -->
<g id="node9" class="node"><title>dc</title>
<polygon fill="none" stroke="black" points="170,-42.6 170,-67.4 242,-67.4 242,-42.6 170,-42.6"/>
<text text-anchor="middle" x="188.169" y="-49.4" font-family="Times,serif" font-size="14.00">C</text>
<polyline fill="none" stroke="black" points="206.338,-42.6 206.338,-67.4 "/>
<text text-anchor="middle" x="223.838" y="-49.4" font-family="Times,serif" font-size="14.00">4</text>
</g>
<!-- da&#45;&gt;dc -->
<g id="edge8" class="edge"><title>da:value&#45;&gt;dc:name</title>
<path fill="none" stroke="black" d="M134,-55C146,-55 151.25,-55 159.875,-55"/>
<polygon fill="black" stroke="black" points="160,-58.5001 170,-55 160,-51.5001 160,-58.5001"/>
</g>
<!-- de -->
<g id="node10" class="node"><title>de</title>
<polygon fill="none" stroke="black" points="278,-42.6 278,-67.4 350,-67.4 350,-42.6 278,-42.6"/>
<text text-anchor="middle" x="296.276" y="-49.4" font-family="Times,serif" font-size="14.00">E</text>
<polyline fill="none" stroke="black" points="314.552,-42.6 314.552,-67.4 "/>
<text text-anchor="middle" x="332.052" y="-49.4" font-family="Times,serif" font-size="14.00">2</text>
</g>
<!-- dc&#45;&gt;de -->
<g id="edge9" class="edge"><title>dc:value&#45;&gt;de:name</title>
<path fill="none" stroke="black" d="M242,-55C254,-55 259.25,-55 267.875,-55"/>
<polygon fill="black" stroke="black" points="268,-58.5001 278,-55 268,-51.5001 268,-58.5001"/>
</g>
</g>
</svg>
