<?xml version="1.0" encoding="UTF-8" standalone="no"?>
<!DOCTYPE svg PUBLIC "-//W3C//DTD SVG 1.1//EN"
 "http://www.w3.org/Graphics/SVG/1.1/DTD/svg11.dtd">
<!-- Generated by graphviz version 2.30.1 (20130405.0947)
 -->
<!-- Title: %3 Pages: 1 -->
<svg width="222pt" height="166pt"
 viewBox="0.00 0.00 222.00 166.00" xmlns="http://www.w3.org/2000/svg" xmlns:xlink="http://www.w3.org/1999/xlink">
<g id="graph0" class="graph" transform="scale(1 1) rotate(0) translate(4 162)">
<title>%3</title>
<polygon fill="white" stroke="white" points="-4,5 -4,-162 219,-162 219,5 -4,5"/>
<!-- A -->
<g id="node1" class="node"><title>A</title>
<ellipse fill="none" stroke="black" cx="18" cy="-105" rx="18.0209" ry="18.0209"/>
<text text-anchor="middle" x="18" y="-99.4" font-family="Times,serif" font-size="14.00">A</text>
</g>
<!-- B -->
<g id="node2" class="node"><title>B</title>
<ellipse fill="none" stroke="black" cx="98" cy="-140" rx="18" ry="18"/>
<text text-anchor="middle" x="98" y="-134.4" font-family="Times,serif" font-size="14.00">B</text>
</g>
<!-- A&#45;&#45;B -->
<g id="edge1" class="edge"><title>A&#45;&#45;B</title>
<path fill="none" stroke="black" d="M34.7845,-112.083C48.3171,-118.155 67.7131,-126.858 81.239,-132.928"/>
<text text-anchor="middle" x="58" y="-126.8" font-family="Times,serif" font-size="14.00">1</text>
</g>
<!-- D -->
<g id="node4" class="node"><title>D</title>
<ellipse fill="none" stroke="black" cx="98" cy="-77" rx="18.0209" ry="18.0209"/>
<text text-anchor="middle" x="98" y="-71.4" font-family="Times,serif" font-size="14.00">D</text>
</g>
<!-- A&#45;&#45;D -->
<g id="edge2" class="edge"><title>A&#45;&#45;D</title>
<path fill="none" stroke="black" d="M34.403,-96.8154C40.4076,-93.836 47.418,-90.6113 54,-88.2 62.4025,-85.1218 72.0191,-82.5336 80.0243,-80.6233"/>
<text text-anchor="middle" x="58" y="-91.8" font-family="Times,serif" font-size="14.00">2</text>
</g>
<!-- C -->
<g id="node3" class="node"><title>C</title>
<ellipse fill="none" stroke="black" cx="187" cy="-135" rx="18" ry="18"/>
<text text-anchor="middle" x="187" y="-129.4" font-family="Times,serif" font-size="14.00">C</text>
</g>
<!-- B&#45;&#45;C -->
<g id="edge3" class="edge"><title>B&#45;&#45;C</title>
<path fill="none" stroke="black" d="M116.188,-139.012C131.441,-138.136 153.606,-136.862 168.847,-135.986"/>
<text text-anchor="middle" x="138" y="-140.8" font-family="Times,serif" font-size="14.00">3</text>
</g>
<!-- D&#45;&#45;C -->
<g id="edge4" class="edge"><title>D&#45;&#45;C</title>
<path fill="none" stroke="black" d="M113.366,-86.5775C129.486,-97.324 155.484,-114.656 171.612,-125.408"/>
<text text-anchor="middle" x="138" y="-107.8" font-family="Times,serif" font-size="14.00">4</text>
</g>
<!-- D0 -->
<!-- D&#45;&#45;D0 -->
<!-- E -->
<g id="node5" class="node"><title>E</title>
<ellipse fill="none" stroke="black" cx="187" cy="-18" rx="18" ry="18"/>
<text text-anchor="middle" x="187" y="-12.4" font-family="Times,serif" font-size="14.00">E</text>
</g>
<!-- D&#45;&#45;E -->
<g id="edge6" class="edge"><title>D&#45;&#45;E</title>
<path fill="none" stroke="black" d="M113.366,-67.2573C129.486,-56.3256 155.484,-38.6948 171.612,-27.7571"/>
<text text-anchor="middle" x="138" y="-55.8" font-family="Times,serif" font-size="14.00">2</text>
</g>
</g>
</svg>
